<svg xmlns="http://www.w3.org/2000/svg" viewBox="0 0 500 375" width="500" height="375">
  <defs>
    <linearGradient id="sky-axiom-cyborg" x1="0" y1="0" x2="0" y2="1">
      <stop offset="0%" stop-color="#2a3344"/>
      <stop offset="60%" stop-color="#556688"/>
      <stop offset="100%" stop-color="#99a3b7"/>
    </linearGradient>
  </defs>
  <rect width="500" height="375" fill="url(#sky-axiom-cyborg)"/>
  <circle cx="425" cy="99" r="1.5703637978315654" fill="white" opacity="0.6"/>
<circle cx="417" cy="32" r="0.7247182887589418" fill="white" opacity="0.7"/>
<circle cx="73" cy="14" r="1.8882972134073448" fill="white" opacity="0.3"/>
<circle cx="82" cy="93" r="1.6097788563779387" fill="white" opacity="0.8"/>
<circle cx="208" cy="45" r="0.7589866033929296" fill="white" opacity="0.5"/>
<circle cx="103" cy="114" r="0.8689838356320099" fill="white" opacity="0.3"/>
<circle cx="16" cy="67" r="0.9896710983203656" fill="white" opacity="0.6"/>
<circle cx="185" cy="60" r="1.048532994954852" fill="white" opacity="0.7"/>
<circle cx="83" cy="54" r="1.6658652000214782" fill="white" opacity="0.9"/>
<circle cx="176" cy="20" r="1.7393012904477185" fill="white" opacity="0.5"/>
<circle cx="314" cy="69" r="1.5212820711791606" fill="white" opacity="0.7"/>
<circle cx="4" cy="2" r="1.4452822704778518" fill="white" opacity="0.8"/>
<circle cx="37" cy="18" r="0.9018214604832804" fill="white" opacity="0.9"/>
<circle cx="285" cy="8" r="1.143869465584285" fill="white" opacity="0.9"/>
<circle cx="388" cy="61" r="0.5894878210160346" fill="white" opacity="0.6"/>
<circle cx="256" cy="117" r="0.5272811170702656" fill="white" opacity="0.6"/>
<circle cx="280" cy="79" r="1.6828201657558854" fill="white" opacity="0.9"/>
<circle cx="491" cy="120" r="0.5605046382579062" fill="white" opacity="0.8"/>
<circle cx="82" cy="46" r="0.6530105665142191" fill="white" opacity="0.6"/>
<circle cx="382" cy="99" r="0.5701928849592821" fill="white" opacity="0.5"/>
<circle cx="440" cy="53" r="1.7107607779998213" fill="white" opacity="0.8"/>
<circle cx="397" cy="94" r="0.9647101334213232" fill="white" opacity="0.7"/>
<circle cx="212" cy="88" r="1.3834053819603327" fill="white" opacity="0.7"/>
<circle cx="27" cy="111" r="0.889423558257774" fill="white" opacity="0.4"/>

  
        <circle cx="220" cy="69" r="20" fill="#bbc1cf" opacity="0.9"/>
        <circle cx="220" cy="69" r="30" fill="#bbc1cf" opacity="0.2"/>
        <circle cx="220" cy="69" r="45" fill="#bbc1cf" opacity="0.1"/>
  <polygon points="0,375 0,226 125,184 250,219 375,201 500,206 500,375" fill="#333d51" opacity="0.8"/>
<polygon points="0,375 0,243 83,236 166,252 250,233 333,238 416,179 500,175 500,375" fill="#3b475f" opacity="0.8"/>
<polygon points="0,375 0,168 71,131 142,165 214,151 285,152 357,160 428,107 500,177 500,375" fill="#44516c" opacity="0.8"/>

  
        <g transform="translate(250,187)">
          <circle cx="0" cy="0" r="40" fill="#44516c" opacity="0.5"/>
          <circle cx="0" cy="0" r="30" fill="#99a3b7" opacity="0.3"/>
          <circle cx="0" cy="0" r="20" fill="#bbc1cf" opacity="0.2"/>
          <path d="M0,-40 L5,-10 L35,-25 L10,0 L40,15 L5,10 L0,40 L-5,10 L-40,15 L-10,0 L-35,-25 L-5,-10 Z" fill="#bbc1cf" opacity="0.4"/>
        </g>
  <text x="250" y="360" text-anchor="middle" fill="#bbc1cf" font-family="Georgia, serif" font-size="12" font-style="italic" opacity="0.8">Chrome Angel</text>
</svg>