<svg xmlns="http://www.w3.org/2000/svg" viewBox="0 0 100 75" width="100" height="75">
  <rect width="100" height="75" fill="#556655"/>
  <rect width="100" height="37" fill="#2a332a" opacity="0.3"/>
  <circle cx="79" cy="9" r="0.6549893434452492" fill="white" opacity="0.5"/>
<circle cx="81" cy="18" r="0.8951302907374659" fill="white" opacity="0.5"/>
<circle cx="95" cy="29" r="0.8736236107901307" fill="white" opacity="0.5"/>
<circle cx="28" cy="26" r="0.7208425882788396" fill="white" opacity="0.5"/>
<circle cx="34" cy="5" r="0.583757282237432" fill="white" opacity="0.5"/>
<circle cx="30" cy="22" r="0.7516604498208501" fill="white" opacity="0.5"/>
<circle cx="95" cy="11" r="0.8065405076935823" fill="white" opacity="0.5"/>
<circle cx="26" cy="9" r="0.8588829078094515" fill="white" opacity="0.5"/>
<circle cx="27" cy="29" r="0.6173044972019068" fill="white" opacity="0.5"/>
<circle cx="89" cy="19" r="0.3596582723749156" fill="white" opacity="0.5"/>
<circle cx="58" cy="1" r="0.823701049173263" fill="white" opacity="0.5"/>
<circle cx="45" cy="29" r="0.4852885122509021" fill="white" opacity="0.5"/>

  <polygon points="0,75 0,39 25,41 50,40 75,44 100,38 100,75" fill="#3b473b" opacity="0.6"/>
  <circle cx="50" cy="32" r="12" fill="#3b473b" opacity="0.7"/>
  <circle cx="50" cy="32" r="8" fill="#bbc1bb" opacity="0.3"/>
</svg>